<svg xmlns="http://www.w3.org/2000/svg" width="29" height="34" viewBox="0 0 29 34">
    <g fill="none" fill-rule="evenodd">
        <g fill="#231F20">
            <g>
                <g>
                    <path d="M10.396.455h7.54c.869.5 1.145 1.02.942 1.77-.194.711-.736 1.043-1.72 1.058-.238.005-.477.027-.805.045 0 .654.016 1.259-.006 1.862-.014.406.09.664.554.674.143.003.284.075.428.106 6.807 1.506 11.914 8.146 10.705 15.703-.783 4.89-3.547 8.37-8.016 10.542-1.362.662-2.827.961-4.299 1.241h-3.105c-.433-.084-.865-.167-1.298-.253C4.89 31.934-.698 25.92.206 17.91.715 13.399 3.08 9.936 7.002 7.556c1.377-.835 2.871-1.374 4.448-1.697.247-.05.516-.057.52-.393.008-.7.002-1.399.002-2.191-.48 0-.87.031-1.255-.006-1.065-.103-1.685-1.228-1.134-2.104.183-.291.537-.476.813-.71m14.912 19.138c.109-5.688-4.541-11.115-11.14-11.114-6.71 0-11.139 5.548-11.174 10.951-.038 5.944 4.836 11.236 11.235 11.195 6.332-.041 11.163-5.27 11.079-11.032" transform="translate(-570 -48) translate(570 48) translate(0 .5)"/>
                    <path d="M15.61 15.552c0 .757.06 1.52-.014 2.27-.084.84.218 1.424.84 1.97.845.744 1.612 1.576 2.42 2.364.335.327.52.706.497 1.175-.03.564-.309.972-.812 1.217-.478.233-.954.208-1.4-.093-.121-.082-.237-.177-.341-.28-1.207-1.187-2.41-2.378-3.617-3.564-.291-.286-.468-.602-.466-1.032.011-2.37.004-4.74.006-7.109.001-.617.267-1.075.838-1.35.52-.249 1.011-.177 1.461.148.43.31.592.76.59 1.279-.005 1.001-.002 2.003-.001 3.005" transform="translate(-570 -48) translate(570 48) translate(0 .5)"/>
                </g>
            </g>
        </g>
    </g>
</svg>
